<svg width="154" height="152" viewBox="0 0 154 152" fill="none" xmlns="http://www.w3.org/2000/svg">
<path d="M66.4834 3.8434C72.7224 -0.809735 81.2776 -0.809734 87.5167 3.8434L87.9169 4.14188C91.7198 6.97812 96.5071 8.15808 101.192 7.41402L101.686 7.33571C109.372 6.115 116.948 10.0908 120.31 17.1104L120.525 17.5607C122.575 21.8393 126.265 25.1089 130.76 26.6275L131.233 26.7873C138.606 29.2786 143.466 36.3194 143.181 44.0973L143.163 44.5963C142.989 49.3372 144.737 53.9473 148.011 57.3807L148.356 57.742C153.727 63.3747 154.758 71.8675 150.891 78.6219L150.643 79.0552C148.286 83.1722 147.691 88.0669 148.995 92.6284L149.132 93.1084C151.27 100.592 148.237 108.591 141.673 112.775L141.252 113.043C137.252 115.593 134.451 119.651 133.485 124.296L133.384 124.785C131.799 132.405 125.396 138.078 117.64 138.732L117.142 138.774C112.415 139.173 108.049 141.464 105.036 145.128L104.719 145.514C99.7744 151.525 91.4678 153.572 84.2965 150.548L83.8365 150.354C79.4653 148.51 74.5347 148.51 70.1635 150.354L69.7035 150.548C62.5322 153.572 54.2256 151.525 49.2814 145.514L48.9643 145.128C45.9506 141.464 41.5848 139.173 36.8575 138.774L36.36 138.732C28.6044 138.078 22.2008 132.405 20.6164 124.785L20.5147 124.296C19.549 119.651 16.7481 115.593 12.7476 113.043L12.3266 112.775C5.76349 108.591 2.72978 100.592 4.86814 93.1084L5.0053 92.6284C6.30871 88.0669 5.71439 83.1722 3.35721 79.0552L3.10915 78.6219C-0.758018 71.8675 0.273197 63.3747 5.64444 57.742L5.98898 57.3807C9.26294 53.9473 11.0113 49.3372 10.8375 44.5963L10.8192 44.0973C10.5339 36.3194 15.3938 29.2786 22.7674 26.7873L23.2404 26.6275C27.7349 25.1089 31.4255 21.8393 33.4747 17.5607L33.6904 17.1104C37.0524 10.0908 44.6276 6.115 52.3145 7.33571L52.8075 7.41402C57.4929 8.15808 62.2802 6.97812 66.0831 4.14187L66.4834 3.8434Z" fill="#53C1D0"/>
</svg>
