<svg width="190" height="68" viewBox="0 0 190 68" fill="none" xmlns="http://www.w3.org/2000/svg">
<path d="M0.133395 49.707C0.0444649 49.707 0 49.574 0 49.3079C0 49.0418 0.0444649 48.9088 0.133395 48.9088C1.37841 48.9088 2.31218 48.7979 2.93468 48.5762C3.55719 48.3544 4.02407 47.9332 4.33533 47.3123C4.64658 46.6471 4.91337 45.6493 5.1357 44.3189L10.6049 13.5202C10.7827 12.3672 10.8717 11.6354 10.8717 11.325C10.8717 10.3494 10.6049 9.70637 10.0713 9.39594C9.58219 9.08551 8.67066 8.9303 7.33671 8.9303C7.20331 8.9303 7.13662 8.79726 7.13662 8.53118C7.13662 8.2651 7.20331 8.13206 7.33671 8.13206L10.2714 8.19858C12.05 8.28728 13.4951 8.33162 14.6067 8.33162C15.496 8.33162 16.5632 8.2651 17.8082 8.13206C20.8763 7.99902 22.477 7.9325 22.6104 7.9325C26.4344 7.9325 29.4802 8.73074 31.7479 10.3272C34.0601 11.8794 35.2162 14.1632 35.2162 17.1788C35.2162 17.8883 35.1495 18.6866 35.0161 19.5735C34.4825 22.3673 33.3042 24.7399 31.4812 26.6911C29.7026 28.598 27.6349 30.0171 25.2783 30.9484C22.9661 31.8353 20.7206 32.2788 18.5419 32.2788C17.4302 32.2788 16.5187 32.1679 15.8073 31.9462C15.7628 31.9462 15.7406 31.8797 15.7406 31.7466C15.7406 31.5249 15.785 31.281 15.874 31.0149C15.9629 30.7045 16.0741 30.5715 16.2075 30.6158C16.741 30.7932 17.3858 30.8819 18.1417 30.8819C20.4539 30.8819 22.4992 30.0615 24.2778 28.4206C26.0564 26.7355 27.1903 24.2299 27.6794 20.9039C27.8573 19.5735 27.9462 18.62 27.9462 18.0435C27.9462 15.3384 27.3015 13.2098 26.012 11.6576C24.767 10.1055 23.2107 9.32942 21.3432 9.32942C19.9203 9.32942 18.942 9.61767 18.4085 10.1942C17.8749 10.7263 17.4302 11.8794 17.0745 13.6532L11.672 44.3189C11.4942 45.4719 11.4052 46.2036 11.4052 46.5141C11.4052 47.4897 11.6498 48.1327 12.1389 48.4431C12.6725 48.7536 13.6063 48.9088 14.9402 48.9088C15.0736 48.9088 15.1403 49.0418 15.1403 49.3079C15.1403 49.574 15.0736 49.707 14.9402 49.707C13.6507 49.707 12.628 49.6848 11.8721 49.6405L7.40341 49.574L3.13478 49.6405C2.42334 49.6848 1.42288 49.707 0.133395 49.707Z" fill="#53C1D0"/>
<path d="M51.0761 23.1656C52.7658 23.1656 54.0775 23.4538 55.0112 24.0303C55.945 24.6068 56.4119 25.4051 56.4119 26.425C56.4119 28.4206 54.9223 30.3054 51.9432 32.0792C49.0085 33.8088 45.4513 35.0726 41.2716 35.8709C41.1382 36.8465 41.0715 37.7999 41.0715 38.7312C41.0715 41.392 41.6273 43.5428 42.7389 45.1837C43.8506 46.7801 45.4958 47.5784 47.6745 47.5784C48.6083 47.5784 49.6088 47.4232 50.6759 47.1127C51.7875 46.758 52.788 46.2258 53.6773 45.5163H53.744C53.8774 45.5163 53.9886 45.5828 54.0775 45.7158C54.2109 45.8489 54.2331 45.9597 54.1442 46.0484C52.5434 47.6006 50.8538 48.7314 49.0752 49.4409C47.2966 50.1505 45.518 50.5053 43.7394 50.5053C40.6713 50.5053 38.3591 49.574 36.8029 47.7114C35.2911 45.8489 34.5352 43.4985 34.5352 40.6603C34.5352 39.6847 34.6463 38.5982 34.8686 37.4008C35.3133 35.0061 36.2915 32.7223 37.8033 30.5493C39.3596 28.3763 41.2938 26.6024 43.606 25.2277C45.9182 23.8529 48.4082 23.1656 51.0761 23.1656ZM49.6755 28.1546C49.7199 27.9772 49.7422 27.7111 49.7422 27.3563C49.7422 26.6024 49.5421 26.0259 49.1419 25.6268C48.7862 25.1833 48.2748 24.9616 47.6078 24.9616C46.185 24.9616 44.9177 25.8707 43.8061 27.6889C42.7389 29.5071 41.9386 31.8797 41.405 34.8066C46.5185 33.4762 49.2753 31.2588 49.6755 28.1546Z" fill="#53C1D0"/>
<path d="M76.716 23.4316C77.8721 23.4316 78.9615 23.8529 79.9842 24.6955C81.0514 25.5381 81.496 26.4916 81.3181 27.5559C81.2292 28.2211 80.918 28.8419 80.3844 29.4184C79.8508 29.9949 79.1838 30.2832 78.3835 30.2832C77.5831 30.2832 76.716 29.9063 75.7823 29.1524C75.471 28.9306 75.1598 28.7311 74.8485 28.5537C74.5372 28.3763 74.226 28.2876 73.9147 28.2876C73.1588 28.2876 72.2251 29.4628 71.1134 31.8132C70.0018 34.1635 68.9347 36.9795 67.912 40.2612C66.9337 43.4985 66.2223 46.3588 65.7777 48.8423V48.9088C65.6887 49.3079 65.333 49.6183 64.7105 49.8401C64.088 50.1061 63.1987 50.2392 62.0426 50.2392C60.5753 50.2392 59.8416 50.0618 59.8416 49.707C59.8861 49.3966 60.0195 48.7314 60.2418 47.7114C60.5086 46.6914 60.7309 45.7158 60.9087 44.7845L63.6433 29.9506C63.7323 29.2411 63.7767 28.7754 63.7767 28.5537C63.7767 27.312 63.3766 26.6911 62.5762 26.6911C61.6869 26.6911 60.4196 27.5781 58.7744 29.3519C58.73 29.3963 58.6633 29.4184 58.5743 29.4184C58.3965 29.4184 58.2631 29.3519 58.1742 29.2189C58.0852 29.0415 58.1075 28.8863 58.2409 28.7532C59.8416 26.8907 61.2645 25.5381 62.5095 24.6955C63.799 23.8529 65.0885 23.4316 66.3779 23.4316C67.4896 23.4316 68.2899 23.7421 68.779 24.3629C69.2682 24.9394 69.5127 25.8042 69.5127 26.9572C69.5127 27.6224 69.446 28.3541 69.3126 29.1524L67.9787 36.4696C70.6021 27.7776 73.5145 23.4316 76.716 23.4316Z" fill="#53C1D0"/>
<path d="M107.427 43.7867C107.293 44.4519 107.226 44.9841 107.226 45.3832C107.226 46.4032 107.582 46.9132 108.294 46.9132C108.738 46.9132 109.227 46.7136 109.761 46.3145C110.339 45.9154 111.028 45.3389 111.829 44.585C111.917 44.4963 111.984 44.4519 112.029 44.4519C112.162 44.4519 112.273 44.5406 112.362 44.718C112.496 44.8511 112.496 44.9841 112.362 45.1171C110.85 46.891 109.494 48.1992 108.294 49.0418C107.137 49.8844 105.937 50.3057 104.692 50.3057C102.558 50.3057 101.49 49.064 101.49 46.5806C101.49 45.9154 101.602 44.9841 101.824 43.7867L108.36 8.66422C107.96 6.84601 107.293 5.42692 106.359 4.40694C105.47 3.34263 104.403 2.81047 103.158 2.81047C100.801 2.81047 98.8448 4.25173 97.2885 7.13426C95.7767 10.0168 94.5761 14.4736 93.6869 20.5048L93.0866 24.4294C94.9541 24.3408 96.3325 24.2521 97.2218 24.1634C98.3779 24.0747 99.1116 24.0303 99.4228 24.0303C99.6007 24.0303 99.7341 24.119 99.823 24.2964C99.9119 24.4738 99.9342 24.6512 99.8897 24.8286C99.7563 25.272 99.4451 25.782 98.9559 26.3585C98.4668 26.935 98.0222 27.2011 97.622 27.1568C94.8207 26.7576 93.22 26.5359 92.8198 26.4916L89.1514 51.1039C88.5289 55.4056 87.7508 58.7759 86.817 61.215C85.9277 63.654 84.8161 65.3836 83.4822 66.4035C82.1482 67.4678 80.4363 68 78.3465 68C76.5234 68 75.0783 67.6674 74.0111 67.0022C72.944 66.3813 72.4104 65.5831 72.4104 64.6075C72.4104 63.6319 72.7216 62.878 73.3442 62.3458C73.9222 61.8136 74.6336 61.5476 75.4785 61.5476C76.5456 61.5476 77.2793 61.8136 77.6795 62.3458C78.0352 62.878 78.302 63.654 78.4799 64.674C78.6133 65.3836 78.7689 65.8935 78.9467 66.204C79.0801 66.5144 79.3692 66.6696 79.8138 66.6696C80.2585 66.6696 80.6142 66.3148 80.881 65.6053C81.1922 64.9401 81.5035 63.7206 81.8147 61.9467C82.1704 60.1728 82.6596 57.1351 83.2821 52.8335L86.6836 29.3519C86.7726 28.8641 86.817 28.2876 86.817 27.6224C86.817 26.8242 86.5947 26.3363 86.15 26.159C85.7054 25.9372 84.7939 25.8264 83.4155 25.8264C83.2821 25.8264 83.2154 25.6711 83.2154 25.3607C83.2154 24.9616 83.2821 24.762 83.4155 24.762C84.8828 24.762 85.9277 24.5625 86.5502 24.1634C87.1727 23.7642 87.5729 23.0104 87.7508 21.9017C88.9513 14.9836 90.8411 9.83941 93.4201 6.46906C96.0435 3.09872 99.7785 1.41355 104.625 1.41355C106.137 1.41355 107.538 1.56876 108.827 1.87919C110.117 2.14527 111.117 2.52221 111.829 3.01003C113.296 2.25613 114.163 1.30268 114.43 0.149668C114.474 0.0166298 114.63 -0.0277163 114.897 0.0166298C115.163 0.0166298 115.275 0.0831502 115.23 0.216191L107.427 43.7867Z" fill="#53C1D0"/>
<path d="M132.885 23.1656C134.574 23.1656 135.886 23.4538 136.82 24.0303C137.753 24.6068 138.22 25.4051 138.22 26.425C138.22 28.4206 136.731 30.3054 133.752 32.0792C130.817 33.8088 127.26 35.0726 123.08 35.8709C122.947 36.8465 122.88 37.7999 122.88 38.7312C122.88 41.392 123.436 43.5428 124.547 45.1837C125.659 46.7801 127.304 47.5784 129.483 47.5784C130.417 47.5784 131.417 47.4232 132.484 47.1127C133.596 46.758 134.596 46.2258 135.486 45.5163H135.552C135.686 45.5163 135.797 45.5828 135.886 45.7158C136.019 45.8489 136.042 45.9597 135.953 46.0484C134.352 47.6006 132.662 48.7314 130.884 49.4409C129.105 50.1505 127.326 50.5053 125.548 50.5053C122.48 50.5053 120.168 49.574 118.611 47.7114C117.1 45.8489 116.344 43.4985 116.344 40.6603C116.344 39.6847 116.455 38.5982 116.677 37.4008C117.122 35.0061 118.1 32.7223 119.612 30.5493C121.168 28.3763 123.102 26.6024 125.414 25.2277C127.727 23.8529 130.217 23.1656 132.885 23.1656ZM131.484 28.1546C131.528 27.9772 131.551 27.7111 131.551 27.3563C131.551 26.6024 131.351 26.0259 130.95 25.6268C130.595 25.1833 130.083 24.9616 129.416 24.9616C127.993 24.9616 126.726 25.8707 125.615 27.6889C124.547 29.5071 123.747 31.8797 123.213 34.8066C128.327 33.4762 131.084 31.2588 131.484 28.1546ZM126.348 18.8418C125.192 18.8418 124.281 18.5313 123.614 17.9105C122.991 17.2453 122.68 16.3362 122.68 15.1832C122.68 14.1189 123.013 13.2763 123.68 12.6554C124.347 12.0346 125.237 11.7241 126.348 11.7241C127.46 11.7241 128.305 12.0346 128.883 12.6554C129.505 13.2763 129.816 14.1189 129.816 15.1832C129.816 16.3362 129.505 17.2453 128.883 17.9105C128.305 18.5313 127.46 18.8418 126.348 18.8418ZM137.954 18.8418C136.797 18.8418 135.908 18.5313 135.286 17.9105C134.663 17.2453 134.352 16.3362 134.352 15.1832C134.352 14.1189 134.663 13.2984 135.286 12.7219C135.953 12.1011 136.842 11.7907 137.954 11.7907C139.065 11.7907 139.91 12.1011 140.488 12.7219C141.111 13.2984 141.422 14.1189 141.422 15.1832C141.422 16.3362 141.111 17.2453 140.488 17.9105C139.91 18.5313 139.065 18.8418 137.954 18.8418Z" fill="#53C1D0"/>
<path d="M148.863 50.6383C145.928 50.6383 143.683 49.707 142.126 47.8445C140.615 45.9376 139.859 43.4763 139.859 40.4607C139.859 39.1303 139.97 37.933 140.192 36.8687C140.681 34.2079 141.637 31.8353 143.06 29.751C144.527 27.6667 146.284 26.0481 148.329 24.8951C150.375 23.7421 152.576 23.1656 154.932 23.1656C157.911 23.1656 160.179 24.0747 161.735 25.8929C163.336 27.6667 164.136 30.0615 164.136 33.077C164.136 34.2744 164.003 35.5383 163.736 36.8687C163.158 39.7955 162.091 42.3011 160.535 44.3854C159.023 46.4254 157.222 47.9775 155.132 49.0418C153.087 50.1061 150.997 50.6383 148.863 50.6383ZM151.13 48.9753C152.553 48.9753 153.776 48.1549 154.799 46.5141C155.866 44.8732 156.644 42.6337 157.133 39.7956C157.444 38.066 157.6 36.3143 157.6 34.5405C157.6 31.6579 157.155 29.3076 156.266 27.4894C155.421 25.6711 154.243 24.762 152.731 24.762C151.397 24.762 150.197 25.5381 149.13 27.0902C148.107 28.6424 147.329 30.9484 146.795 34.0083C146.484 35.7378 146.328 37.4895 146.328 39.2634C146.328 42.1459 146.751 44.4963 147.596 46.3145C148.44 48.0884 149.619 48.9753 151.13 48.9753Z" fill="#53C1D0"/>
<path d="M185.36 23.4316C186.516 23.4316 187.605 23.8529 188.628 24.6955C189.695 25.5381 190.14 26.4916 189.962 27.5559C189.873 28.2211 189.562 28.8419 189.028 29.4184C188.495 29.9949 187.828 30.2832 187.027 30.2832C186.227 30.2832 185.36 29.9063 184.426 29.1524C184.115 28.9306 183.803 28.7311 183.492 28.5537C183.181 28.3763 182.87 28.2876 182.558 28.2876C181.803 28.2876 180.869 29.4628 179.757 31.8132C178.646 34.1635 177.578 36.9795 176.556 40.2612C175.577 43.4985 174.866 46.3588 174.421 48.8423V48.9088C174.332 49.3079 173.977 49.6183 173.354 49.8401C172.732 50.1061 171.842 50.2392 170.686 50.2392C169.219 50.2392 168.485 50.0618 168.485 49.707C168.53 49.3966 168.663 48.7314 168.886 47.7114C169.152 46.6914 169.375 45.7158 169.552 44.7845L172.287 29.9506C172.376 29.2411 172.42 28.7754 172.42 28.5537C172.42 27.312 172.02 26.6911 171.22 26.6911C170.331 26.6911 169.063 27.5781 167.418 29.3519C167.374 29.3963 167.307 29.4184 167.218 29.4184C167.04 29.4184 166.907 29.3519 166.818 29.2189C166.729 29.0415 166.751 28.8863 166.885 28.7532C168.485 26.8907 169.908 25.5381 171.153 24.6955C172.443 23.8529 173.732 23.4316 175.022 23.4316C176.133 23.4316 176.934 23.7421 177.423 24.3629C177.912 24.9394 178.156 25.8042 178.156 26.9572C178.156 27.6224 178.09 28.3541 177.956 29.1524L176.622 36.4696C179.246 27.7776 182.158 23.4316 185.36 23.4316Z" fill="#53C1D0"/>
</svg>
