<svg width="62" height="63" viewBox="0 0 62 63" fill="none" xmlns="http://www.w3.org/2000/svg">
<path d="M39.3449 46.1677L29.5917 58.6018C28.8891 59.4976 27.5935 59.6562 26.6969 58.9563L23.7305 56.6405" stroke="#53C1D0" stroke-width="2" stroke-miterlimit="10" stroke-linecap="round" stroke-linejoin="round"/>
<path d="M19.925 25.3035L38.3678 1.79095C39.0703 0.895214 40.366 0.736617 41.2627 1.43653L60.2084 16.2266C61.1063 16.9275 61.2639 18.2237 60.5602 19.1208L56.2834 24.5732" stroke="#53C1D0" stroke-width="2" stroke-miterlimit="10" stroke-linecap="round" stroke-linejoin="round"/>
<path d="M35.6048 14.806L43.6374 9.42808C44.5836 8.79465 45.8639 9.04669 46.4978 9.99127L59.8825 29.9361C60.517 30.8817 60.2634 32.1631 59.3161 32.7973L17.5956 60.7296C16.6493 61.363 15.3693 61.1109 14.7353 60.1664L1.35065 40.2216C0.716016 39.2759 0.969508 37.9946 1.91674 37.3603L31.3931 17.6257" stroke="#53C1D0" stroke-width="2" stroke-miterlimit="10" stroke-linecap="round" stroke-linejoin="round"/>
<path d="M28.5122 45.8673C25.7392 45.3273 23.1735 43.7274 21.4761 41.1981C18.0918 36.1552 19.4408 29.3274 24.4888 25.9478C29.5369 22.568 36.3724 23.9164 39.7567 28.9591C43.1408 34.002 41.7919 40.8296 36.7439 44.2094C35.7627 44.8663 34.7142 45.3445 33.6365 45.6518" stroke="#53C1D0" stroke-width="2" stroke-miterlimit="10" stroke-linecap="round" stroke-linejoin="round"/>
<path d="M7.62596 33.5377C10.3749 37.6342 9.27939 43.1805 5.17869 45.9259L1.34864 40.2188C0.714856 39.2743 0.969194 37.9946 1.91655 37.3603L7.62596 33.5377Z" stroke="#53C1D0" stroke-width="2" stroke-miterlimit="10" stroke-linecap="round" stroke-linejoin="round"/>
<path d="M10.9155 54.4746C15.0249 51.7235 20.5799 52.8068 23.3232 56.8946L17.598 60.7277C16.6505 61.3619 15.3688 61.1106 14.735 60.1662L10.9155 54.4746Z" stroke="#53C1D0" stroke-width="2" stroke-miterlimit="10" stroke-linecap="round" stroke-linejoin="round"/>
<path d="M53.6094 36.6234C50.8604 32.5269 51.9559 26.9806 56.0566 24.2352L59.8867 29.9424C60.5205 30.8868 60.2661 32.1666 59.3188 32.8009L53.6094 36.6234Z" stroke="#53C1D0" stroke-width="2" stroke-miterlimit="10" stroke-linecap="round" stroke-linejoin="round"/>
<path d="M50.3199 15.6867C46.2105 18.4379 40.6554 17.3545 37.9121 13.2668L43.6374 9.43371C44.5848 8.79943 45.8665 9.05075 46.5003 9.9952L50.3199 15.6867Z" stroke="#53C1D0" stroke-width="2" stroke-miterlimit="10" stroke-linecap="round" stroke-linejoin="round"/>
<path d="M44.423 25.8351L48.691 22.9777" stroke="#53C1D0" stroke-width="2" stroke-miterlimit="10" stroke-linecap="round" stroke-linejoin="round"/>
<path d="M12.5418 47.1797L16.8097 44.3223" stroke="#53C1D0" stroke-width="2" stroke-miterlimit="10" stroke-linecap="round" stroke-linejoin="round"/>
<path d="M29.5888 29.4142C29.5888 29.4142 27.8274 29.142 26.4867 30.7703C25.2556 32.2654 26.284 34.6245 27.8813 34.7423C28.7986 34.8098 29.9633 34.5905 31.4715 34.2037C34.8474 33.3378 36.4139 37.8517 33.6491 39.7296C32.5701 40.4624 32.0173 40.7331 30.6487 40.7496" stroke="#53C1D0" stroke-width="2" stroke-miterlimit="10" stroke-linecap="round" stroke-linejoin="round"/>
<path d="M26.3154 28.8015L34.5892 41.1307" stroke="#53C1D0" stroke-width="2" stroke-miterlimit="10" stroke-linecap="round" stroke-linejoin="round"/>
</svg>
