<svg width="60" height="60" viewBox="0 0 60 60" fill="none" xmlns="http://www.w3.org/2000/svg">
<path d="M56.4121 18.266C56.3274 18.2215 56.2398 18.1754 56.1981 18.1474C52.8991 15.939 53.088 14.1347 53.2397 12.6849C53.6035 9.20896 54.631 3.6081 54.6413 3.55197C54.7408 3.01173 54.4516 2.4749 53.9455 2.26068C53.4399 2.04623 52.8529 2.21251 52.5343 2.65982C45.6994 12.2537 37.8289 18.9639 37.7541 19.0272C29.5239 25.9323 22.8866 34.8912 22.1161 45.5154C21.5996 52.6363 23.9931 57.3014 24.0953 57.4965C24.3034 57.8943 24.7218 58.1411 25.1795 58.1241C25.8445 58.0997 26.3582 57.5248 26.3038 56.8572C26.1186 45.8604 30.2705 38.8446 38.3138 36.5672C38.9457 36.3885 39.6089 36.3283 40.2625 36.3895C40.8807 36.448 47.7652 37.0904 48.3598 37.0745C50.1841 37.0514 51.5146 36.4562 52.3141 35.3052C53.1775 34.0623 53.1446 32.5233 52.9697 31.4632C53.7104 31.1824 54.265 30.7794 54.6251 30.2582C55.038 29.6606 55.1028 29.0154 55.0257 28.6108C54.9782 28.3611 54.8508 28.1338 54.6627 27.9629C54.5724 27.8808 54.4988 27.8052 54.4388 27.7372C54.9386 27.675 55.3628 27.4451 55.6522 27.0744C56.1997 26.3733 56.0179 25.4992 55.9759 25.3311C55.9414 25.1936 55.957 25.2646 55.2857 23.5769L57.4546 22.402C57.7635 22.2348 57.9809 21.9379 58.0473 21.5929C58.478 19.3532 57.0303 18.5913 56.4121 18.266ZM53.252 22.013C52.729 22.2962 52.5012 22.9263 52.7221 23.4786L53.5103 25.4486C51.9808 25.7425 51.239 27.4553 52.5143 29.0875C52.3218 29.2132 51.9677 29.3695 51.3579 29.4762C50.6434 29.6011 50.2115 30.3406 50.4566 31.0255C50.631 31.5127 50.9931 33.099 50.3895 33.9681C50.0506 34.4557 49.3697 34.7122 48.3653 34.7305C48.1282 34.718 46.4079 34.6168 40.4835 34.0565C39.5424 33.967 38.5859 34.0545 37.6756 34.3122C34.2578 35.2799 31.4049 37.0342 29.196 39.5263C26.8316 42.1938 25.2605 45.63 24.4961 49.7892C23.4148 38.3078 30.4627 28.2041 39.2647 20.8194C39.5495 20.5784 45.4196 15.577 51.5289 7.8879C51.2888 9.42013 51.0521 11.0735 50.909 12.4408C50.7385 14.0692 50.4211 17.1004 54.8945 20.0949C55.039 20.1917 55.1824 20.267 55.3209 20.3399C55.5772 20.4747 55.7092 20.5443 55.7632 20.6527L53.252 22.013Z" fill="#53C1D0"/>
<path d="M16.9114 45.5458C17.5837 36.929 22.7002 28.3798 31.7116 20.8193C32.0417 20.54 39.8773 13.8637 46.8901 4.0197C47.2656 3.49259 47.1428 2.76087 46.6157 2.38529C46.0884 2.0097 45.3569 2.13263 44.9813 2.65974C38.1466 12.2536 30.276 18.9638 30.2012 19.0271C21.9713 25.932 15.3338 34.8911 14.5632 45.5153C14.0466 52.6362 16.4401 57.3013 16.5423 57.4965C16.7515 57.896 17.1583 58.124 17.5799 58.124C18.4437 58.124 19.0281 57.201 18.6201 56.4121C18.598 56.3692 16.4046 52.0407 16.9114 45.5458Z" fill="#53C1D0"/>
<path d="M4.47848 45.5279C4.99868 36.9184 10.0321 28.3756 19.0345 20.8226C19.5303 20.4067 19.595 19.6675 19.1791 19.1717C18.7631 18.6758 18.024 18.611 17.5281 19.0272C9.27766 25.9491 2.71399 34.9158 2.1304 45.5358C1.73899 52.6591 4.25676 57.3231 4.36411 57.5181C4.57727 57.9055 4.97723 58.1241 5.39008 58.1241C6.2704 58.1241 6.84602 57.176 6.41864 56.3904C6.39532 56.3475 4.08626 52.0195 4.47848 45.5279Z" fill="#53C1D0"/>
<path d="M23.2597 20.226C23.6872 20.7132 24.4279 20.7601 24.9135 20.3339C35.157 11.3463 39.0815 3.89869 39.2435 3.58604C39.5412 3.01182 39.3171 2.30565 38.7431 2.00741C38.1692 1.70916 37.4619 1.93276 37.1632 2.50639C37.1253 2.5794 33.2486 9.90268 23.3678 18.5721C22.8812 18.999 22.8329 19.7395 23.2597 20.226Z" fill="#53C1D0"/>
<path d="M14.4412 33.1532C14.8862 32.6875 14.872 31.9493 14.4083 31.5011C13.9428 31.0513 13.201 31.064 12.7513 31.5293C12.4569 31.8339 5.59311 39.1969 10.1134 57.2379C10.2709 57.8666 10.908 58.2467 11.5349 58.0899C12.1626 57.9325 12.5441 57.2962 12.3868 56.6683C10.1988 47.9355 10.882 41.9961 11.8404 38.5512C12.8627 34.8773 14.4054 33.1918 14.4412 33.1532Z" fill="#53C1D0"/>
<path d="M5.39062 18.2812C7.32914 18.2812 8.90625 16.7041 8.90625 14.7656C8.90625 12.8271 7.32914 11.25 5.39062 11.25C3.45211 11.25 1.875 12.8271 1.875 14.7656C1.875 16.7041 3.45211 18.2812 5.39062 18.2812ZM5.39062 13.5938C6.0368 13.5938 6.5625 14.1195 6.5625 14.7656C6.5625 15.4118 6.0368 15.9375 5.39062 15.9375C4.74445 15.9375 4.21875 15.4118 4.21875 14.7656C4.21875 14.1195 4.74445 13.5938 5.39062 13.5938Z" fill="#53C1D0"/>
<path d="M53.4375 44.0625C51.499 44.0625 49.9219 45.6396 49.9219 47.5781C49.9219 49.5166 51.499 51.0938 53.4375 51.0938C55.376 51.0938 56.9531 49.5166 56.9531 47.5781C56.9531 45.6396 55.376 44.0625 53.4375 44.0625ZM53.4375 48.75C52.7913 48.75 52.2656 48.2243 52.2656 47.5781C52.2656 46.932 52.7913 46.4062 53.4375 46.4062C54.0837 46.4062 54.6094 46.932 54.6094 47.5781C54.6094 48.2243 54.0837 48.75 53.4375 48.75Z" fill="#53C1D0"/>
<path d="M40.748 44.992C39.1821 43.5911 36.7766 43.6418 35.2707 45.1477C33.7154 46.7031 33.7154 49.234 35.2707 50.7895L39.9193 55.4381C40.3769 55.8954 41.1189 55.8956 41.5767 55.4381L46.2253 50.7895C47.7806 49.2341 47.7806 46.7033 46.2252 45.1476C44.7184 43.6408 42.313 43.5917 40.748 44.992ZM44.5679 49.1321L40.748 52.952L36.928 49.1321C36.2864 48.4905 36.2864 47.4465 36.9279 46.805C37.571 46.1621 38.612 46.1616 39.2551 46.805L39.9192 47.4691C40.3769 47.9266 41.1187 47.9266 41.5766 47.4691L42.2407 46.805C42.8837 46.1617 43.9247 46.162 44.5678 46.8049C45.2094 47.4465 45.2094 48.4905 44.5679 49.1321Z" fill="#53C1D0"/>
<path d="M19.0101 13.3338C19.4676 13.7911 20.2099 13.7913 20.6675 13.3338L25.316 8.68536C26.8714 7.12993 26.8714 4.59904 25.316 3.04349C23.8089 1.53657 21.4033 1.48806 19.8387 2.88786C18.2758 1.48958 15.8703 1.53482 14.3615 3.04349C12.8025 4.60255 12.8022 7.12595 14.3615 8.68536L19.0101 13.3338ZM17.1825 4.21876C17.622 4.21876 18.0352 4.38997 18.3461 4.70075L19.0102 5.36486C19.4679 5.82247 20.2099 5.82236 20.6675 5.36486L21.3316 4.70075C21.9746 4.05763 23.0157 4.05751 23.6587 4.70075C24.3003 5.34236 24.3003 6.38626 23.6587 7.02786L19.8389 10.8478L16.0189 7.02786C15.7081 6.71708 15.5369 6.30388 15.5369 5.86431C15.5369 4.95505 16.2729 4.21876 17.1825 4.21876Z" fill="#53C1D0"/>
</svg>
