<svg width="60" height="60" viewBox="0 0 60 60" fill="none" xmlns="http://www.w3.org/2000/svg">
<path d="M42.2522 24.9646C41.9616 24.9646 41.6766 24.8305 41.4928 24.5783C41.1881 24.1592 41.281 23.5733 41.7 23.2696C41.7628 23.2236 41.7806 23.1542 41.7516 23.0642C41.7085 22.9302 41.6194 22.9302 41.5903 22.9302C41.0728 22.9302 40.6528 22.5111 40.6528 21.9927C40.6528 21.4742 41.0728 21.0552 41.5903 21.0552C42.4894 21.0552 43.2525 21.6158 43.5356 22.4849C43.8188 23.3539 43.531 24.2577 42.8035 24.7846C42.6356 24.9055 42.4425 24.9646 42.2522 24.9646Z" fill="#53C1D0"/>
<path d="M35.7505 29.6886C35.4599 29.6886 35.1749 29.5545 34.9912 29.3024C34.6865 28.8833 34.7793 28.2974 35.1983 27.9936L41.6999 23.2695C42.1199 22.9658 42.7049 23.0586 43.0096 23.4767C43.3143 23.8958 43.2215 24.4817 42.8024 24.7855L36.3008 29.5095C36.134 29.6295 35.9408 29.6886 35.7505 29.6886Z" fill="#53C1D0"/>
<path d="M41.5895 22.9302H33.5532C33.0357 22.9302 32.6157 22.5111 32.6157 21.9927C32.6157 21.4742 33.0357 21.0552 33.5532 21.0552H41.5895C42.107 21.0552 42.527 21.4742 42.527 21.9927C42.527 22.5111 42.1079 22.9302 41.5895 22.9302Z" fill="#53C1D0"/>
<path d="M37.1419 38.8022C36.7256 38.8022 36.3112 38.6719 35.9503 38.4103C35.5312 38.1066 35.4384 37.5187 35.7431 37.1016C36.0469 36.6825 36.6337 36.5887 37.0528 36.8944C37.1156 36.9384 37.1869 36.9347 37.2637 36.8794C37.3781 36.795 37.3509 36.7125 37.3416 36.6834C37.1822 36.1931 37.4512 35.6634 37.9434 35.5022C38.4366 35.3428 38.9653 35.6119 39.1247 36.105C39.4022 36.96 39.105 37.8591 38.3653 38.3953C37.9922 38.6662 37.5656 38.8022 37.1419 38.8022Z" fill="#53C1D0"/>
<path d="M38.2331 37.3312C37.8375 37.3312 37.47 37.0799 37.3416 36.6833L34.8581 29.0408C34.6988 28.5487 34.9678 28.019 35.46 27.8596C35.955 27.7002 36.4819 27.9693 36.6413 28.4624L39.1247 36.1049C39.2841 36.5971 39.015 37.1268 38.5228 37.2862C38.4263 37.3171 38.3288 37.3312 38.2331 37.3312Z" fill="#53C1D0"/>
<path d="M36.5007 38.5893C36.3095 38.5893 36.1173 38.5302 35.9504 38.4102L29.4488 33.6861C29.0298 33.3824 28.937 32.7964 29.2416 32.3774C29.5454 31.9583 30.1313 31.8664 30.5513 32.1702L37.0529 36.8943C37.472 37.198 37.5648 37.7839 37.2601 38.203C37.0763 38.4561 36.7913 38.5893 36.5007 38.5893Z" fill="#53C1D0"/>
<path d="M22.8571 38.8021C22.4324 38.8021 22.0058 38.6662 21.6327 38.3952C20.894 37.859 20.5968 36.9581 20.8752 36.1049C21.0355 35.6127 21.5633 35.3446 22.0565 35.5021C22.5486 35.6634 22.8186 36.1921 22.6574 36.6852C22.649 36.7124 22.6208 36.7968 22.7352 36.8793C22.8515 36.9618 22.9236 36.9102 22.9471 36.8924C23.3652 36.5887 23.9521 36.6796 24.2568 37.1015C24.5605 37.5206 24.4677 38.1065 24.0486 38.4102C23.6886 38.6718 23.2743 38.8021 22.8571 38.8021Z" fill="#53C1D0"/>
<path d="M23.4993 38.5893C23.2087 38.5893 22.9237 38.4552 22.7399 38.203C22.4353 37.784 22.5281 37.198 22.9471 36.8943L29.4487 32.1702C29.8687 31.8665 30.4546 31.9574 30.7584 32.3774C31.0631 32.7965 30.9703 33.3824 30.5512 33.6862L24.0496 38.4102C23.8828 38.5312 23.6906 38.5893 23.4993 38.5893Z" fill="#53C1D0"/>
<path d="M21.7669 37.3313C21.6713 37.3313 21.5728 37.3163 21.4772 37.2853C20.985 37.126 20.715 36.5972 20.8753 36.1041L23.3588 28.4616C23.5191 27.9694 24.0469 27.6994 24.54 27.8588C25.0322 28.0182 25.3022 28.5469 25.1419 29.04L22.6585 36.6825C22.53 37.081 22.1625 37.3313 21.7669 37.3313Z" fill="#53C1D0"/>
<path d="M17.7478 24.9646C17.5566 24.9646 17.3625 24.9055 17.1966 24.7855C16.47 24.2549 16.1822 23.3521 16.4653 22.484C16.7484 21.6158 17.5116 21.0562 18.4106 21.0562C18.9281 21.0562 19.3481 21.4752 19.3481 21.9937C19.3481 22.5121 18.9281 22.9312 18.4106 22.9312C18.3328 22.9312 18.2775 22.9771 18.2484 23.0652C18.2044 23.2012 18.2775 23.2537 18.3019 23.2724C18.72 23.5762 18.8119 24.164 18.5072 24.5812C18.3225 24.8305 18.0375 24.9646 17.7478 24.9646Z" fill="#53C1D0"/>
<path d="M26.4459 22.9302H18.4097C17.8922 22.9302 17.4722 22.5111 17.4722 21.9927C17.4722 21.4742 17.8922 21.0552 18.4097 21.0552H26.4459C26.9634 21.0552 27.3834 21.4742 27.3834 21.9927C27.3834 22.5111 26.9644 22.9302 26.4459 22.9302Z" fill="#53C1D0"/>
<path d="M24.2495 29.6888C24.0582 29.6888 23.8661 29.6298 23.6992 29.5098L17.1976 24.7857C16.7786 24.4819 16.6857 23.896 16.9904 23.4769C17.2951 23.0598 17.8801 22.966 18.3001 23.2698L24.8017 27.9938C25.2207 28.2976 25.3136 28.8835 25.0089 29.3026C24.8251 29.5548 24.5401 29.6888 24.2495 29.6888Z" fill="#53C1D0"/>
<path d="M31.0697 15.286C30.6741 15.286 30.3066 15.0347 30.1781 14.6382C30.1547 14.565 30.0937 14.5266 29.9991 14.5266C29.8584 14.5266 29.8312 14.611 29.8228 14.6382C29.6634 15.1304 29.1366 15.4013 28.6425 15.241C28.1503 15.0816 27.8803 14.5547 28.0397 14.0616C28.3162 13.2047 29.085 12.6535 29.9991 12.6516H30C30.915 12.6516 31.6847 13.2047 31.9631 14.0597C32.1225 14.5519 31.8534 15.0816 31.3612 15.241C31.2628 15.271 31.1653 15.286 31.0697 15.286Z" fill="#53C1D0"/>
<path d="M33.5532 22.9302C33.1576 22.9302 32.7901 22.6771 32.6616 22.2824L30.1782 14.638C30.0188 14.1477 30.2879 13.618 30.7801 13.4568C31.2732 13.2974 31.802 13.5665 31.9613 14.0596L34.4448 21.704C34.6041 22.1943 34.3351 22.724 33.8429 22.8852C33.7473 22.9152 33.6488 22.9302 33.5532 22.9302Z" fill="#53C1D0"/>
<path d="M26.4459 22.9303C26.3502 22.9303 26.2518 22.9153 26.1562 22.8844C25.664 22.7231 25.394 22.1944 25.5543 21.7031L28.0377 14.0588C28.1971 13.5666 28.7249 13.2966 29.219 13.4559C29.7112 13.6172 29.9812 14.1459 29.8209 14.6372L27.3374 22.2816C27.209 22.6772 26.8415 22.9303 26.4459 22.9303Z" fill="#53C1D0"/>
<path d="M50.6249 44.5583H24.7603C24.2428 44.5583 23.8228 44.1393 23.8228 43.6208C23.8228 43.1024 24.2428 42.6833 24.7603 42.6833H50.6249C51.1424 42.6833 51.5624 43.1024 51.5624 43.6208C51.5624 44.1393 51.1424 44.5583 50.6249 44.5583Z" fill="#53C1D0"/>
<path d="M11.3606 44.5583H9.375C8.8575 44.5583 8.4375 44.1393 8.4375 43.6208C8.4375 43.1024 8.8575 42.6833 9.375 42.6833H11.3606C11.8781 42.6833 12.2981 43.1024 12.2981 43.6208C12.2981 44.1393 11.8781 44.5583 11.3606 44.5583Z" fill="#53C1D0"/>
<path d="M54.375 12.4622C53.8575 12.4622 53.4375 12.0431 53.4375 11.5247C53.4375 9.97403 52.1756 8.71216 50.625 8.71216C50.1075 8.71216 49.6875 8.2931 49.6875 7.77466C49.6875 7.25622 50.1075 6.83716 50.625 6.83716C53.2097 6.83716 55.3125 8.94091 55.3125 11.5247C55.3125 12.0431 54.8925 12.4622 54.375 12.4622Z" fill="#53C1D0"/>
<path d="M50.625 8.71216H9.375C8.8575 8.71216 8.4375 8.2931 8.4375 7.77466C8.4375 7.25622 8.8575 6.83716 9.375 6.83716H50.625C51.1425 6.83716 51.5625 7.25622 51.5625 7.77466C51.5625 8.2931 51.1425 8.71216 50.625 8.71216Z" fill="#53C1D0"/>
<path d="M54.375 40.8084C53.8575 40.8084 53.4375 40.3893 53.4375 39.8709V11.5247C53.4375 11.0062 53.8575 10.5872 54.375 10.5872C54.8925 10.5872 55.3125 11.0062 55.3125 11.5247V39.8709C55.3125 40.3893 54.8925 40.8084 54.375 40.8084Z" fill="#53C1D0"/>
<path d="M50.625 44.5583C50.1075 44.5583 49.6875 44.1393 49.6875 43.6208C49.6875 43.1024 50.1075 42.6833 50.625 42.6833C52.1756 42.6833 53.4375 41.4215 53.4375 39.8708C53.4375 39.3524 53.8575 38.9333 54.375 38.9333C54.8925 38.9333 55.3125 39.3524 55.3125 39.8708C55.3125 42.4546 53.2097 44.5583 50.625 44.5583Z" fill="#53C1D0"/>
<path d="M9.375 44.5583C6.79031 44.5583 4.6875 42.4546 4.6875 39.8708C4.6875 39.3524 5.1075 38.9333 5.625 38.9333C6.1425 38.9333 6.5625 39.3524 6.5625 39.8708C6.5625 41.4215 7.82437 42.6833 9.375 42.6833C9.8925 42.6833 10.3125 43.1024 10.3125 43.6208C10.3125 44.1393 9.8925 44.5583 9.375 44.5583Z" fill="#53C1D0"/>
<path d="M5.625 40.8084C5.1075 40.8084 4.6875 40.3893 4.6875 39.8709V11.5247C4.6875 11.0062 5.1075 10.5872 5.625 10.5872C6.1425 10.5872 6.5625 11.0062 6.5625 11.5247V39.8709C6.5625 40.3893 6.1425 40.8084 5.625 40.8084Z" fill="#53C1D0"/>
<path d="M5.625 12.4622C5.1075 12.4622 4.6875 12.0431 4.6875 11.5247C4.6875 8.94091 6.79031 6.83716 9.375 6.83716C9.8925 6.83716 10.3125 7.25622 10.3125 7.77466C10.3125 8.2931 9.8925 8.71216 9.375 8.71216C7.82437 8.71216 6.5625 9.97403 6.5625 11.5247C6.5625 12.0431 6.1425 12.4622 5.625 12.4622Z" fill="#53C1D0"/>
<path d="M11.3616 53.1608C11.0532 53.1608 10.7513 53.009 10.5723 52.7305C10.2929 52.2946 10.4185 51.7143 10.8544 51.434L24.2541 42.8315C24.6882 42.5512 25.2695 42.6777 25.5488 43.1137C25.8282 43.5496 25.7026 44.1299 25.2666 44.4102L11.8669 53.0127C11.7104 53.113 11.5351 53.1608 11.3616 53.1608Z" fill="#53C1D0"/>
<path d="M11.3606 53.1609C10.8431 53.1609 10.4231 52.7418 10.4231 52.2234V43.6208C10.4231 43.1024 10.8431 42.6833 11.3606 42.6833C11.8781 42.6833 12.2981 43.1024 12.2981 43.6208V52.2234C12.2981 52.7418 11.8781 53.1609 11.3606 53.1609Z" fill="#53C1D0"/>
</svg>
